<mxfile host="app.diagrams.net" agent="Mozilla/5.0 (Windows NT 10.0; Win64; x64) AppleWebKit/537.36 (KHTML, like Gecko) Chrome/134.0.0.0 Safari/537.36 OPR/119.0.0.0 (Edition std-2)" version="27.1.6">
  <diagram name="Page-1" id="3PPPlaNQ-2fKWnhaxl2s">
    <mxGraphModel dx="998" dy="616" grid="1" gridSize="10" guides="1" tooltips="1" connect="1" arrows="1" fold="1" page="1" pageScale="1" pageWidth="850" pageHeight="1100" math="0" shadow="0">
      <root>
        <mxCell id="0" />
        <mxCell id="1" parent="0" />
        <mxCell id="jgCzXMVtjwk1o45xCtkD-1" value="" style="whiteSpace=wrap;html=1;aspect=fixed;rounded=0;fillColor=#60a917;fontColor=#ffffff;strokeColor=#2D7600;" vertex="1" parent="1">
          <mxGeometry x="400" y="960" width="80" height="80" as="geometry" />
        </mxCell>
        <mxCell id="jgCzXMVtjwk1o45xCtkD-12" style="edgeStyle=none;shape=link;orthogonalLoop=1;jettySize=auto;html=1;exitX=1;exitY=0.5;exitDx=0;exitDy=0;entryX=0;entryY=0.5;entryDx=0;entryDy=0;" edge="1" parent="1" source="jgCzXMVtjwk1o45xCtkD-2" target="jgCzXMVtjwk1o45xCtkD-3">
          <mxGeometry relative="1" as="geometry" />
        </mxCell>
        <mxCell id="jgCzXMVtjwk1o45xCtkD-13" style="edgeStyle=none;shape=link;orthogonalLoop=1;jettySize=auto;html=1;exitX=0.5;exitY=0;exitDx=0;exitDy=0;entryX=0.5;entryY=1;entryDx=0;entryDy=0;" edge="1" parent="1" source="jgCzXMVtjwk1o45xCtkD-2" target="jgCzXMVtjwk1o45xCtkD-5">
          <mxGeometry relative="1" as="geometry" />
        </mxCell>
        <mxCell id="jgCzXMVtjwk1o45xCtkD-14" style="edgeStyle=none;shape=link;orthogonalLoop=1;jettySize=auto;html=1;exitX=0.5;exitY=1;exitDx=0;exitDy=0;entryX=0.5;entryY=0;entryDx=0;entryDy=0;" edge="1" parent="1" source="jgCzXMVtjwk1o45xCtkD-2" target="jgCzXMVtjwk1o45xCtkD-6">
          <mxGeometry relative="1" as="geometry" />
        </mxCell>
        <mxCell id="jgCzXMVtjwk1o45xCtkD-2" value="Some debri" style="whiteSpace=wrap;html=1;aspect=fixed;rounded=0;fillColor=#60a917;fontColor=#ffffff;strokeColor=#2D7600;" vertex="1" parent="1">
          <mxGeometry x="400" y="840" width="80" height="80" as="geometry" />
        </mxCell>
        <mxCell id="jgCzXMVtjwk1o45xCtkD-15" style="edgeStyle=none;shape=link;orthogonalLoop=1;jettySize=auto;html=1;exitX=0.5;exitY=1;exitDx=0;exitDy=0;entryX=0.5;entryY=0;entryDx=0;entryDy=0;" edge="1" parent="1" source="jgCzXMVtjwk1o45xCtkD-3" target="jgCzXMVtjwk1o45xCtkD-4">
          <mxGeometry relative="1" as="geometry" />
        </mxCell>
        <mxCell id="jgCzXMVtjwk1o45xCtkD-3" value="Key" style="whiteSpace=wrap;html=1;aspect=fixed;rounded=0;fillColor=#60a917;fontColor=#ffffff;strokeColor=#2D7600;" vertex="1" parent="1">
          <mxGeometry x="520" y="840" width="80" height="80" as="geometry" />
        </mxCell>
        <mxCell id="jgCzXMVtjwk1o45xCtkD-4" value="Meta?" style="whiteSpace=wrap;html=1;aspect=fixed;rounded=0;fillColor=#60a917;fontColor=#ffffff;strokeColor=#2D7600;" vertex="1" parent="1">
          <mxGeometry x="520" y="960" width="80" height="80" as="geometry" />
        </mxCell>
        <mxCell id="jgCzXMVtjwk1o45xCtkD-33" style="edgeStyle=none;shape=link;orthogonalLoop=1;jettySize=auto;html=1;exitX=0.5;exitY=0;exitDx=0;exitDy=0;" edge="1" parent="1" source="jgCzXMVtjwk1o45xCtkD-5" target="jgCzXMVtjwk1o45xCtkD-27">
          <mxGeometry relative="1" as="geometry" />
        </mxCell>
        <mxCell id="jgCzXMVtjwk1o45xCtkD-5" value="A closed gate" style="whiteSpace=wrap;html=1;aspect=fixed;rounded=0;fillColor=#60a917;fontColor=#ffffff;strokeColor=#2D7600;" vertex="1" parent="1">
          <mxGeometry x="400" y="720" width="80" height="80" as="geometry" />
        </mxCell>
        <mxCell id="jgCzXMVtjwk1o45xCtkD-6" value="Start" style="ellipse;whiteSpace=wrap;html=1;aspect=fixed;rounded=0;fillColor=#008a00;fontColor=#ffffff;strokeColor=#005700;" vertex="1" parent="1">
          <mxGeometry x="400" y="960" width="80" height="80" as="geometry" />
        </mxCell>
        <mxCell id="jgCzXMVtjwk1o45xCtkD-17" value="" style="endArrow=classic;html=1;exitX=0.5;exitY=0;exitDx=0;exitDy=0;entryX=1;entryY=0.5;entryDx=0;entryDy=0;" edge="1" parent="1" source="jgCzXMVtjwk1o45xCtkD-3" target="jgCzXMVtjwk1o45xCtkD-5">
          <mxGeometry width="50" height="50" relative="1" as="geometry">
            <mxPoint x="460" y="750" as="sourcePoint" />
            <mxPoint x="510" y="700" as="targetPoint" />
            <Array as="points">
              <mxPoint x="560" y="760" />
            </Array>
          </mxGeometry>
        </mxCell>
        <mxCell id="jgCzXMVtjwk1o45xCtkD-23" style="edgeStyle=none;orthogonalLoop=1;jettySize=auto;html=1;exitX=1;exitY=0.5;exitDx=0;exitDy=0;entryX=0;entryY=0.5;entryDx=0;entryDy=0;" edge="1" parent="1" source="jgCzXMVtjwk1o45xCtkD-18" target="jgCzXMVtjwk1o45xCtkD-6">
          <mxGeometry relative="1" as="geometry" />
        </mxCell>
        <mxCell id="jgCzXMVtjwk1o45xCtkD-18" value="Click arrows!&lt;div&gt;They will move you to other rooms!&lt;/div&gt;" style="rounded=1;whiteSpace=wrap;html=1;" vertex="1" parent="1">
          <mxGeometry x="240" y="970" width="120" height="60" as="geometry" />
        </mxCell>
        <mxCell id="jgCzXMVtjwk1o45xCtkD-19" value="By pressing Q and E&lt;div&gt;you can rotate the camera!&lt;/div&gt;" style="rounded=1;whiteSpace=wrap;html=1;" vertex="1" parent="1">
          <mxGeometry x="110" y="850" width="120" height="60" as="geometry" />
        </mxCell>
        <mxCell id="jgCzXMVtjwk1o45xCtkD-22" style="edgeStyle=none;orthogonalLoop=1;jettySize=auto;html=1;exitX=1;exitY=0.5;exitDx=0;exitDy=0;entryX=0;entryY=0.5;entryDx=0;entryDy=0;" edge="1" parent="1" source="jgCzXMVtjwk1o45xCtkD-20" target="jgCzXMVtjwk1o45xCtkD-2">
          <mxGeometry relative="1" as="geometry" />
        </mxCell>
        <mxCell id="jgCzXMVtjwk1o45xCtkD-20" value="Try and have a look at where this road leads to..." style="rounded=1;whiteSpace=wrap;html=1;" vertex="1" parent="1">
          <mxGeometry x="240" y="850" width="120" height="60" as="geometry" />
        </mxCell>
        <mxCell id="jgCzXMVtjwk1o45xCtkD-24" value="" style="endArrow=none;html=1;" edge="1" parent="1">
          <mxGeometry width="50" height="50" relative="1" as="geometry">
            <mxPoint x="500" y="860" as="sourcePoint" />
            <mxPoint x="500" y="900" as="targetPoint" />
          </mxGeometry>
        </mxCell>
        <mxCell id="jgCzXMVtjwk1o45xCtkD-26" style="edgeStyle=none;orthogonalLoop=1;jettySize=auto;html=1;exitX=0;exitY=0.5;exitDx=0;exitDy=0;entryX=1;entryY=0.5;entryDx=0;entryDy=0;" edge="1" parent="1" source="jgCzXMVtjwk1o45xCtkD-25" target="jgCzXMVtjwk1o45xCtkD-3">
          <mxGeometry relative="1" as="geometry" />
        </mxCell>
        <mxCell id="jgCzXMVtjwk1o45xCtkD-25" value="Look, a key!&lt;div&gt;This must be useful somewhere...&lt;/div&gt;" style="rounded=1;whiteSpace=wrap;html=1;" vertex="1" parent="1">
          <mxGeometry x="640" y="850" width="120" height="60" as="geometry" />
        </mxCell>
        <mxCell id="jgCzXMVtjwk1o45xCtkD-34" style="edgeStyle=none;shape=link;orthogonalLoop=1;jettySize=auto;html=1;exitX=0.5;exitY=0;exitDx=0;exitDy=0;entryX=0.5;entryY=1;entryDx=0;entryDy=0;fillColor=#647687;strokeColor=#314354;" edge="1" parent="1" source="jgCzXMVtjwk1o45xCtkD-27" target="jgCzXMVtjwk1o45xCtkD-32">
          <mxGeometry relative="1" as="geometry" />
        </mxCell>
        <mxCell id="jgCzXMVtjwk1o45xCtkD-27" value="Bridge&lt;div&gt;(Title drop?)&lt;/div&gt;" style="whiteSpace=wrap;html=1;aspect=fixed;fillColor=#647687;fontColor=#ffffff;strokeColor=#314354;" vertex="1" parent="1">
          <mxGeometry x="400" y="600" width="80" height="80" as="geometry" />
        </mxCell>
        <mxCell id="jgCzXMVtjwk1o45xCtkD-38" style="edgeStyle=none;shape=link;orthogonalLoop=1;jettySize=auto;html=1;exitX=0.5;exitY=0;exitDx=0;exitDy=0;entryX=0.5;entryY=1;entryDx=0;entryDy=0;" edge="1" parent="1" source="jgCzXMVtjwk1o45xCtkD-28" target="jgCzXMVtjwk1o45xCtkD-30">
          <mxGeometry relative="1" as="geometry" />
        </mxCell>
        <mxCell id="jgCzXMVtjwk1o45xCtkD-28" value="" style="whiteSpace=wrap;html=1;aspect=fixed;fillColor=#647687;fontColor=#ffffff;strokeColor=#314354;" vertex="1" parent="1">
          <mxGeometry x="640" y="480" width="80" height="80" as="geometry" />
        </mxCell>
        <mxCell id="jgCzXMVtjwk1o45xCtkD-37" style="edgeStyle=none;shape=link;orthogonalLoop=1;jettySize=auto;html=1;exitX=0.5;exitY=0;exitDx=0;exitDy=0;" edge="1" parent="1" source="jgCzXMVtjwk1o45xCtkD-29" target="jgCzXMVtjwk1o45xCtkD-31">
          <mxGeometry relative="1" as="geometry">
            <Array as="points">
              <mxPoint x="200" y="460" />
            </Array>
          </mxGeometry>
        </mxCell>
        <mxCell id="jgCzXMVtjwk1o45xCtkD-29" value="" style="whiteSpace=wrap;html=1;aspect=fixed;fillColor=#647687;fontColor=#ffffff;strokeColor=#314354;" vertex="1" parent="1">
          <mxGeometry x="160" y="480" width="80" height="80" as="geometry" />
        </mxCell>
        <mxCell id="jgCzXMVtjwk1o45xCtkD-30" value="" style="whiteSpace=wrap;html=1;aspect=fixed;fillColor=#647687;fontColor=#ffffff;strokeColor=#314354;" vertex="1" parent="1">
          <mxGeometry x="640" y="360" width="80" height="80" as="geometry" />
        </mxCell>
        <mxCell id="jgCzXMVtjwk1o45xCtkD-31" value="" style="whiteSpace=wrap;html=1;aspect=fixed;fillColor=#647687;fontColor=#ffffff;strokeColor=#314354;" vertex="1" parent="1">
          <mxGeometry x="160" y="360" width="80" height="80" as="geometry" />
        </mxCell>
        <mxCell id="jgCzXMVtjwk1o45xCtkD-41" style="edgeStyle=none;shape=link;orthogonalLoop=1;jettySize=auto;html=1;exitX=1;exitY=0.5;exitDx=0;exitDy=0;entryX=0;entryY=0.5;entryDx=0;entryDy=0;width=-4;" edge="1" parent="1" source="jgCzXMVtjwk1o45xCtkD-32" target="jgCzXMVtjwk1o45xCtkD-39">
          <mxGeometry relative="1" as="geometry" />
        </mxCell>
        <mxCell id="jgCzXMVtjwk1o45xCtkD-43" style="edgeStyle=none;shape=link;orthogonalLoop=1;jettySize=auto;html=1;exitX=0;exitY=0.5;exitDx=0;exitDy=0;" edge="1" parent="1" source="jgCzXMVtjwk1o45xCtkD-32" target="jgCzXMVtjwk1o45xCtkD-40">
          <mxGeometry relative="1" as="geometry" />
        </mxCell>
        <mxCell id="jgCzXMVtjwk1o45xCtkD-59" style="edgeStyle=none;shape=link;orthogonalLoop=1;jettySize=auto;html=1;exitX=0.5;exitY=0;exitDx=0;exitDy=0;" edge="1" parent="1" source="jgCzXMVtjwk1o45xCtkD-32" target="jgCzXMVtjwk1o45xCtkD-44">
          <mxGeometry relative="1" as="geometry" />
        </mxCell>
        <mxCell id="jgCzXMVtjwk1o45xCtkD-32" value="" style="whiteSpace=wrap;html=1;aspect=fixed;fillColor=#647687;fontColor=#ffffff;strokeColor=#314354;" vertex="1" parent="1">
          <mxGeometry x="400" y="480" width="80" height="80" as="geometry" />
        </mxCell>
        <mxCell id="jgCzXMVtjwk1o45xCtkD-42" style="edgeStyle=none;shape=link;orthogonalLoop=1;jettySize=auto;html=1;exitX=1;exitY=0.5;exitDx=0;exitDy=0;entryX=0;entryY=0.5;entryDx=0;entryDy=0;" edge="1" parent="1" source="jgCzXMVtjwk1o45xCtkD-39" target="jgCzXMVtjwk1o45xCtkD-28">
          <mxGeometry relative="1" as="geometry" />
        </mxCell>
        <mxCell id="jgCzXMVtjwk1o45xCtkD-39" value="" style="whiteSpace=wrap;html=1;aspect=fixed;fillColor=#647687;fontColor=#ffffff;strokeColor=#314354;" vertex="1" parent="1">
          <mxGeometry x="520" y="480" width="80" height="80" as="geometry" />
        </mxCell>
        <mxCell id="jgCzXMVtjwk1o45xCtkD-61" style="edgeStyle=none;shape=link;orthogonalLoop=1;jettySize=auto;html=1;exitX=0;exitY=0.5;exitDx=0;exitDy=0;" edge="1" parent="1" source="jgCzXMVtjwk1o45xCtkD-40" target="jgCzXMVtjwk1o45xCtkD-29">
          <mxGeometry relative="1" as="geometry" />
        </mxCell>
        <mxCell id="jgCzXMVtjwk1o45xCtkD-40" value="" style="whiteSpace=wrap;html=1;aspect=fixed;fillColor=#647687;fontColor=#ffffff;strokeColor=#314354;" vertex="1" parent="1">
          <mxGeometry x="280" y="480" width="80" height="80" as="geometry" />
        </mxCell>
        <mxCell id="jgCzXMVtjwk1o45xCtkD-60" style="edgeStyle=none;shape=link;orthogonalLoop=1;jettySize=auto;html=1;exitX=0.5;exitY=0;exitDx=0;exitDy=0;" edge="1" parent="1" source="jgCzXMVtjwk1o45xCtkD-44" target="jgCzXMVtjwk1o45xCtkD-45">
          <mxGeometry relative="1" as="geometry" />
        </mxCell>
        <mxCell id="jgCzXMVtjwk1o45xCtkD-44" value="" style="whiteSpace=wrap;html=1;aspect=fixed;fillColor=#f0a30a;fontColor=#000000;strokeColor=#BD7000;" vertex="1" parent="1">
          <mxGeometry x="400" y="360" width="80" height="80" as="geometry" />
        </mxCell>
        <mxCell id="jgCzXMVtjwk1o45xCtkD-51" style="edgeStyle=none;shape=link;orthogonalLoop=1;jettySize=auto;html=1;exitX=1;exitY=0.5;exitDx=0;exitDy=0;entryX=0;entryY=0.5;entryDx=0;entryDy=0;" edge="1" parent="1" source="jgCzXMVtjwk1o45xCtkD-45" target="jgCzXMVtjwk1o45xCtkD-46">
          <mxGeometry relative="1" as="geometry" />
        </mxCell>
        <mxCell id="jgCzXMVtjwk1o45xCtkD-55" style="edgeStyle=none;shape=link;orthogonalLoop=1;jettySize=auto;html=1;exitX=0;exitY=0.5;exitDx=0;exitDy=0;" edge="1" parent="1" source="jgCzXMVtjwk1o45xCtkD-45" target="jgCzXMVtjwk1o45xCtkD-47">
          <mxGeometry relative="1" as="geometry" />
        </mxCell>
        <mxCell id="jgCzXMVtjwk1o45xCtkD-45" value="" style="whiteSpace=wrap;html=1;aspect=fixed;fillColor=#f0a30a;fontColor=#000000;strokeColor=#BD7000;" vertex="1" parent="1">
          <mxGeometry x="400" y="240" width="80" height="80" as="geometry" />
        </mxCell>
        <mxCell id="jgCzXMVtjwk1o45xCtkD-52" style="edgeStyle=none;shape=link;orthogonalLoop=1;jettySize=auto;html=1;exitX=0.5;exitY=0;exitDx=0;exitDy=0;entryX=0.5;entryY=1;entryDx=0;entryDy=0;" edge="1" parent="1" source="jgCzXMVtjwk1o45xCtkD-46" target="jgCzXMVtjwk1o45xCtkD-50">
          <mxGeometry relative="1" as="geometry" />
        </mxCell>
        <mxCell id="jgCzXMVtjwk1o45xCtkD-46" value="" style="whiteSpace=wrap;html=1;aspect=fixed;fillColor=#f0a30a;fontColor=#000000;strokeColor=#BD7000;" vertex="1" parent="1">
          <mxGeometry x="520" y="240" width="80" height="80" as="geometry" />
        </mxCell>
        <mxCell id="jgCzXMVtjwk1o45xCtkD-56" style="edgeStyle=none;shape=link;orthogonalLoop=1;jettySize=auto;html=1;exitX=0.5;exitY=0;exitDx=0;exitDy=0;entryX=0.5;entryY=1;entryDx=0;entryDy=0;" edge="1" parent="1" source="jgCzXMVtjwk1o45xCtkD-47" target="jgCzXMVtjwk1o45xCtkD-48">
          <mxGeometry relative="1" as="geometry" />
        </mxCell>
        <mxCell id="jgCzXMVtjwk1o45xCtkD-47" value="" style="whiteSpace=wrap;html=1;aspect=fixed;fillColor=#f0a30a;fontColor=#000000;strokeColor=#BD7000;" vertex="1" parent="1">
          <mxGeometry x="280" y="240" width="80" height="80" as="geometry" />
        </mxCell>
        <mxCell id="jgCzXMVtjwk1o45xCtkD-48" value="Staircase to 2F&lt;div&gt;→&lt;/div&gt;" style="whiteSpace=wrap;html=1;aspect=fixed;fillColor=#f0a30a;fontColor=#000000;strokeColor=#BD7000;" vertex="1" parent="1">
          <mxGeometry x="280" y="120" width="80" height="80" as="geometry" />
        </mxCell>
        <mxCell id="jgCzXMVtjwk1o45xCtkD-54" style="edgeStyle=none;shape=link;orthogonalLoop=1;jettySize=auto;html=1;exitX=0.5;exitY=1;exitDx=0;exitDy=0;" edge="1" parent="1" source="jgCzXMVtjwk1o45xCtkD-49" target="jgCzXMVtjwk1o45xCtkD-45">
          <mxGeometry relative="1" as="geometry" />
        </mxCell>
        <mxCell id="jgCzXMVtjwk1o45xCtkD-62" style="edgeStyle=none;shape=link;orthogonalLoop=1;jettySize=auto;html=1;exitX=0;exitY=0.5;exitDx=0;exitDy=0;entryX=1;entryY=0.5;entryDx=0;entryDy=0;" edge="1" parent="1" source="jgCzXMVtjwk1o45xCtkD-49" target="jgCzXMVtjwk1o45xCtkD-48">
          <mxGeometry relative="1" as="geometry" />
        </mxCell>
        <mxCell id="jgCzXMVtjwk1o45xCtkD-49" value="" style="whiteSpace=wrap;html=1;aspect=fixed;fillColor=#f0a30a;fontColor=#000000;strokeColor=#BD7000;" vertex="1" parent="1">
          <mxGeometry x="400" y="120" width="80" height="80" as="geometry" />
        </mxCell>
        <mxCell id="jgCzXMVtjwk1o45xCtkD-53" style="edgeStyle=none;shape=link;orthogonalLoop=1;jettySize=auto;html=1;exitX=0;exitY=0.5;exitDx=0;exitDy=0;" edge="1" parent="1" source="jgCzXMVtjwk1o45xCtkD-50" target="jgCzXMVtjwk1o45xCtkD-49">
          <mxGeometry relative="1" as="geometry" />
        </mxCell>
        <mxCell id="jgCzXMVtjwk1o45xCtkD-58" style="edgeStyle=none;shape=link;orthogonalLoop=1;jettySize=auto;html=1;exitX=1;exitY=0.5;exitDx=0;exitDy=0;entryX=0;entryY=0.5;entryDx=0;entryDy=0;" edge="1" parent="1" source="jgCzXMVtjwk1o45xCtkD-50" target="jgCzXMVtjwk1o45xCtkD-57">
          <mxGeometry relative="1" as="geometry" />
        </mxCell>
        <mxCell id="jgCzXMVtjwk1o45xCtkD-50" value="Staircase to 2F&lt;div&gt;←&lt;/div&gt;" style="whiteSpace=wrap;html=1;aspect=fixed;fillColor=#f0a30a;fontColor=#000000;strokeColor=#BD7000;" vertex="1" parent="1">
          <mxGeometry x="520" y="120" width="80" height="80" as="geometry" />
        </mxCell>
        <mxCell id="jgCzXMVtjwk1o45xCtkD-57" value="" style="whiteSpace=wrap;html=1;aspect=fixed;fillColor=#f0a30a;fontColor=#000000;strokeColor=#BD7000;" vertex="1" parent="1">
          <mxGeometry x="640" y="120" width="80" height="80" as="geometry" />
        </mxCell>
      </root>
    </mxGraphModel>
  </diagram>
</mxfile>
